<svg xmlns="http://www.w3.org/2000/svg" viewBox="0 0 24 24" id="Mastercard">
  <path fill="#ea4335" d="M15.245 17.831h-6.49V6.168h6.49v11.663z" class="colorff5f00 svgShape"></path>
  <path fill="#4285f4" d="M9.167 12A7.404 7.404 0 0 1 12 6.169 7.417 7.417 0 0 0 0 12a7.417 7.417 0 0 0 11.999 5.831A7.406 7.406 0 0 1 9.167 12z" class="coloreb001b svgShape"></path>
  <path fill="#fbbc05" d="M24 12a7.417 7.417 0 0 1-12 5.831c1.725-1.358 2.833-3.465 2.833-5.831S13.725 7.527 12 6.169A7.417 7.417 0 0 1 24 12z" class="colorf79e1b svgShape"></path>
</svg>
