<svg xmlns="http://www.w3.org/2000/svg" viewBox="0 0 512 512" id="neteller">
  <path fill="#84BB41" d="M391.4 414.5H120.6c-13.6 0-24.7-11.1-24.7-24.7V122.2c0-13.6 11.1-24.7 24.7-24.7h270.9c13.6 0 24.7 11.1 24.7 24.7v267.7c-.1 13.6-11.1 24.6-24.8 24.6z"></path>
  <path fill="#414042" d="M391.4 423.3H120.6c-18.5 0-33.5-15-33.5-33.5V122.2c0-18.5 15-33.5 33.5-33.5h270.9c18.5 0 33.5 15 33.5 33.5v267.7c-.1 18.4-15.1 33.4-33.6 33.4zm-270.8-317c-8.8 0-15.9 7.1-15.9 15.9v267.7c0 8.8 7.1 15.9 15.9 15.9h270.9c8.8 0 15.9-7.1 15.9-15.9V122.2c0-8.8-7.1-15.9-15.9-15.9H120.6z"></path>
  <path fill="#EDEDED" d="m146.7 352.3 40.7-192.6h60.4l36.1 95.6 21.2-95.6h60.2l-39.5 192.6h-57.3l-38.5-97-19.5 97z"></path>
</svg>
