<svg xmlns="http://www.w3.org/2000/svg" viewBox="0 0 5000 3000" id="skrill">
  <path fill="#872165" d="M3877.1,897.73l371.65-66.52v1427.2H3877.1Zm542.84,0V2258.41H4792V831.21ZM3347.53,2258.41h372V1214.54h-372ZM889.66,1362.15c-47-3.07-155.86-10.1-155.86-108.09,0-118.21,156.7-118.21,215.46-118.21,103.34,0,237.17,30.5,332.74,59.1,0,0,53.32,18.79,98.68,38l4.22,1.16V910.33l-5.77-1.7c-112.82-39.45-244-77.42-487.11-77.42-419.27,0-567.82,244.23-567.82,453.45,0,120.62,51.69,404.49,531.85,437.25,40.7,2.47,148.72,8.71,148.72,109.95,0,83.59-88.43,132.88-237.17,132.88-163,0-321.15-41.56-417.18-81v333.48c143.79,37.68,305.85,56.52,495.84,56.52,409.91,0,593.52-231.09,593.52-460.09C1439.78,1554,1234.33,1385.24,889.66,1362.15Zm2248.23-162.9c-343.73,11-518.26,165.26-518.26,471.82v587.34H2994.7V1779.46c0-183.56,24-262.28,241.86-269.77v-305C3199.9,1196.85,3137.89,1199.25,3137.89,1199.25ZM2129,1213.34c-8.29,20.8-67.81,189-211.88,363.37V831.21l-383.79,75.85V2258.41h383.79V1840.7c111.17,166.69,166.06,417.71,166.06,417.71h459.7c-45.47-189.06-244.4-537.62-244.4-537.62,178.53-226.31,256.94-467.48,269.4-507.45Zm1404.46-98.94c101.31,0,183.37-82,183.37-183.25a183.36,183.36,0,0,0-183.37-183.36c-101.15,0-183.2,82.12-183.2,183.36S3432.27,1114.4,3533.42,1114.4Z"></path>
</svg>
