<svg xmlns="http://www.w3.org/2000/svg" version="1.1">
 <g>
  <path d="m83.148 80c-4.3242 0-9.9883-2.8789-15.75-13.969-0.12891-0.26172-0.27734-0.48438-0.46484-0.71094-0.65625-0.80078-0.53516-1.9844 0.26562-2.6367 0.80469-0.65234 1.9844-0.53516 2.6406 0.26562 0.36328 0.44531 0.65625 0.89844 0.90234 1.3828 3.1953 6.1523 8.2344 13.188 13.969 11.719 7.7656-2.0117 8.6914-17.73 2.4805-42.047-0.92188-3.5938-3.2969-6.7031-6.5117-8.5391-3.0312-1.7305-6.4922-2.1641-9.7422-1.2227-2.3398 0.66406-4.4336 1.9805-6.0625 3.8125-1.7852 2.0195-4.3438 3.1797-7.0117 3.1797h-15.723c-2.668 0-5.2266-1.1602-7.0156-3.1836-1.625-1.8281-3.7188-3.1445-6.0469-3.8086-3.2617-0.94141-6.7188-0.50781-9.75 1.2227-3.2148 1.8359-5.5898 4.9492-6.5117 8.543-6.2109 24.309-5.2852 40.031 2.4805 42.043 5.7383 1.4766 10.773-5.5625 13.98-11.742 0.23047-0.45703 0.52344-0.91016 0.88672-1.3555 0.65625-0.80078 1.8359-0.91797 2.6406-0.26562 0.80078 0.65625 0.92187 1.8359 0.26562 2.6367-0.1875 0.22656-0.33203 0.44922-0.44922 0.68359-6.9648 13.406-13.77 14.832-18.266 13.668-10.328-2.6758-12.168-19.227-5.1758-46.602 1.1758-4.5703 4.1953-8.5312 8.2891-10.867 3.918-2.2344 8.4102-2.793 12.645-1.5703 3.0117 0.85547 5.7188 2.5586 7.8242 4.9258 1.082 1.2227 2.6133 1.9219 4.207 1.9219h15.723c1.5938 0 3.1289-0.69922 4.2031-1.918 2.1094-2.3711 4.8164-4.0742 7.8359-4.9297 4.2266-1.2227 8.7188-0.66406 12.637 1.5703 4.0938 2.3359 7.1133 6.2969 8.2891 10.863 6.9922 27.379 5.1562 43.93-5.1758 46.605-0.76953 0.19922-1.6094 0.32422-2.5039 0.32422z"/>
  <path d="m31.25 36.875h-3.75v-3.75c0-1.0352-0.83984-1.875-1.875-1.875s-1.875 0.83984-1.875 1.875v3.75h-3.75c-1.0352 0-1.875 0.83984-1.875 1.875s0.83984 1.875 1.875 1.875h3.75v3.75c0 1.0352 0.83984 1.875 1.875 1.875s1.875-0.83984 1.875-1.875v-3.75h3.75c1.0352 0 1.875-0.83984 1.875-1.875s-0.83984-1.875-1.875-1.875z"/>
  <path d="m76.25 33.125c0 2.5-3.75 2.5-3.75 0s3.75-2.5 3.75 0"/>
  <path d="m76.25 44.375c0 2.5-3.75 2.5-3.75 0s3.75-2.5 3.75 0"/>
  <path d="m81.875 38.75c0 2.5-3.75 2.5-3.75 0s3.75-2.5 3.75 0"/>
  <path d="m70.625 38.75c0 2.5-3.75 2.5-3.75 0s3.75-2.5 3.75 0"/>
  <path d="m44.375 42.5h-1.875c-1.0352 0-1.875-0.83984-1.875-1.875s0.83984-1.875 1.875-1.875h1.875c1.0352 0 1.875 0.83984 1.875 1.875s-0.83984 1.875-1.875 1.875z"/>
  <path d="m57.5 42.5h-1.875c-1.0352 0-1.875-0.83984-1.875-1.875s0.83984-1.875 1.875-1.875h1.875c1.0352 0 1.875 0.83984 1.875 1.875s-0.83984 1.875-1.875 1.875z"/>
  <path d="m57.531 64.906c1.8945-0.21484 3.6445-1.0195 4.9766-2.3828 1.6133-1.5742 2.4922-3.6953 2.4922-5.9609 0-2.5898-2.1016-4.6875-4.6875-4.6875h-0.9375c0-2.0664-1.6836-3.75-3.75-3.75h-11.25c-2.0664 0-3.75 1.6836-3.75 3.75h-0.9375c-2.5898 0-4.6875 2.1016-4.6875 4.6875 0 4.2969 3.2422 7.8164 7.4609 8.332 1.3555 1.8438 3.3438 3.1914 5.6641 3.6641v2.0664h-0.9375c-3.6172 0-6.5625 2.9453-6.5625 6.5625 0 1.5508 1.2617 2.8125 2.8125 2.8125h13.125c1.5508 0 2.8125-1.2617 2.8125-2.8125 0-3.6172-2.9453-6.5625-6.5625-6.5625h-0.9375v-2.0664c2.3164-0.47266 4.3008-1.8164 5.6562-3.6562zm-2.0664 11.344h-10.93c0.38672-1.0898 1.4297-1.875 2.6523-1.875h5.625c1.2227 0 2.2656 0.78516 2.6523 1.875zm4.8477-20.625c0.52344 0 0.9375 0.41016 0.9375 0.9375 0 1.2578-0.48828 2.418-1.3867 3.3203-0.18359 0.18359-0.38281 0.34766-0.58984 0.49219 0.035156-0.33203 0.10156-0.65625 0.10156-1v-3.75zm-21.562 0.9375c0-0.52344 0.41016-0.9375 0.9375-0.9375h0.9375v3.75c0 0.33984 0.066406 0.66016 0.10156 0.99219-1.1914-0.85156-1.9766-2.2305-1.9766-3.8047zm5.625 2.8125v-7.5h11.25v7.5c0 3.1016-2.5234 5.625-5.625 5.625s-5.625-2.5234-5.625-5.625z"/>
 </g>
</svg>
