<?xml version="1.0" encoding="utf-8"?>

<!-- Uploaded to: SVG Repo, www.svgrepo.com, Generator: SVG Repo Mixer Tools -->
<svg version="1.1" id="Icons" xmlns="http://www.w3.org/2000/svg" xmlns:xlink="http://www.w3.org/1999/xlink" 
	 viewBox="0 0 32 32" xml:space="preserve">
<style type="text/css">
	.st0{fill:none;stroke:#000000;stroke-width:2;stroke-linecap:round;stroke-linejoin:round;stroke-miterlimit:10;}
</style>
<path class="st0" d="M3.7,31H14c1.8,0,3.5-1.1,4.3-2.7l12-25.6C30.6,1.9,30,1,29.2,1h-1.4c-0.5,0-0.9,0.3-1.1,0.7L16.5,23.9
	c-0.3,0.7-1,1.1-1.7,1.1H5.5c-1.5,0-2.8,0.9-3.2,2.3l-0.4,1.1C1.4,29.7,2.3,31,3.7,31z"/>
<path class="st0" d="M5,15c-2.2,0-4,0.9-4,2v2c0,1.1,1.8,2,4,2s4-0.9,4-2v-2C9,15.9,7.2,15,5,15z"/>
<line class="st0" x1="23.3" y1="9" x2="27.3" y2="9"/>
</svg>