<svg xmlns="http://www.w3.org/2000/svg" viewBox="0 0 24 24" fill="none" stroke="white" stroke-width="2" stroke-linecap="round" stroke-linejoin="round">
  <path d="M6 11h4M8 9v4M15 11h.01M18 11h.01"/>
  <path d="M17 9.5C17 7.567 15.433 6 13.5 6h-3C8.567 6 7 7.567 7 9.5V13c0 1.5 1 2.5 2 3l3 2 3-2c1-.5 2-1.5 2-3V9.5z"/>
  <path d="M7 14.5c-.5 1.5-1 3-2 4-1.5 1.5-3.5 1.5-4.5.5s-1-3 .5-4.5c1-1 2.5-1.5 4-2"/>
  <path d="M17 14.5c.5 1.5 1 3 2 4 1.5 1.5 3.5 1.5 4.5.5s1-3-.5-4.5c-1-1-2.5-1.5-4-2"/>
</svg>
